<svg xmlns="http://www.w3.org/2000/svg" viewBox="0 0 500 500"><g id="freepik--background-complete--inject-62"><path d="M444.71,349.14H264a5.87,5.87,0,0,1-5.86-5.86V80A5.87,5.87,0,0,1,264,74.15H444.71A5.87,5.87,0,0,1,450.57,80V343.28A5.87,5.87,0,0,1,444.71,349.14ZM264,74.4A5.61,5.61,0,0,0,258.35,80V343.28a5.61,5.61,0,0,0,5.61,5.61H444.71a5.61,5.61,0,0,0,5.61-5.61V80a5.61,5.61,0,0,0-5.61-5.61Z" style="fill:#f0f0f0"></path><path d="M236.28,349.14H55.53a5.87,5.87,0,0,1-5.86-5.86V80a5.87,5.87,0,0,1,5.86-5.86H236.28A5.87,5.87,0,0,1,242.14,80V343.28A5.87,5.87,0,0,1,236.28,349.14ZM55.53,74.4A5.61,5.61,0,0,0,49.92,80V343.28a5.61,5.61,0,0,0,5.61,5.61H236.28c3.1,0,5.61-2.51,6.34-6.16V79.45a7,7,0,0,0-6.34-5Z" style="fill:#f0f0f0"></path><rect y="410.21" width="500" height="0.25" style="fill:#f0f0f0"></rect><path d="M84,387s-8.68,1.92-7.39-4.13,1.2-8.29-2.33-11-7.08-4.11-4.38-8.46-2.42-7.75-5.07-10.09.34-4.12,1-8.55-4.07-3.77-4.45-9.35,5.3-12.11.43-19.79c0,0,6.55,3.39,8.7,9.36s.41,10.58,4.28,12.84,6.29,6.2,5,10.22.55,6.16,3.72,9.1,2.33,4.1,1.94,7.69.39,2.74,4,7.65S93.27,385.43,84,387Z" style="fill:#f0f0f0"></path><path d="M85.27,386.77l0-.09L67.87,334a.43.43,0,0,1,.27-.55h0a.43.43,0,0,1,.54.28l17.36,52.69a.51.51,0,0,1,0,.13Z" style="fill:#e0e0e0"></path><path d="M99.69,386.93s8.63,1.91,7.35-4.11-1.19-8.24,2.32-11,7-4.09,4.35-8.42,2.41-7.7,5.05-10-.34-4.09-1-8.5,4-3.75,4.42-9.3-5.27-12-.42-19.69c0,0-6.52,3.37-8.66,9.31s-.41,10.52-4.26,12.78-6.26,6.15-5,10.16-.55,6.13-3.7,9.05-2.32,4.08-1.93,7.65-.39,2.73-4,7.61S90.51,385.33,99.69,386.93Z" style="fill:#f0f0f0"></path><path d="M97.67,386.43a.59.59,0,0,1,0-.13L115,333.89a.43.43,0,0,1,.54-.28h0a.43.43,0,0,1,.28.54L98.51,386.57a.19.19,0,0,1-.05.09Z" style="fill:#e0e0e0"></path><path d="M90.11,385.83S80.18,385,83.57,379s4-8.48,1.17-12.6-6.21-6.75-1.88-10.52,0-9.1-2.08-12.49,1.73-4.29,4-8.81-3.11-5.38-1.65-11.49,9.69-11.21,7-21.06c0,0,5.89,5.82,6.21,12.92s-3.07,11.47.32,15.18,4.69,8.72,1.94,12.6-1.45,6.78,1,11,1.13,5.17-.48,8.88-.49,3.07,1.77,9.53S100.53,387.18,90.11,385.83Z" style="fill:#f5f5f5"></path><path d="M91.52,386a.49.49,0,0,1,0-.12l-1.1-62.2a.48.48,0,0,1,.48-.49h0a.48.48,0,0,1,.48.47l1.1,62.21a.68.68,0,0,1,0,.14Z" style="fill:#e0e0e0"></path><path d="M117.15,381H68.58a2,2,0,0,0-1.87,2.7l.72,1.91.45,1.21,1.31,3.46.45,1.21L71,395.07l.46,1.21,5.34,14.18H109l5.35-14.18.45-1.21,1.34-3.55.46-1.21,1.3-3.46.45-1.21.72-1.91A2,2,0,0,0,117.15,381Z" style="fill:#e6e6e6"></path><rect x="80.48" y="272.49" width="34.57" height="10.13" rx="1.5" transform="translate(195.54 555.11) rotate(180)" style="fill:#f5f5f5"></rect><rect x="61.63" y="285.41" width="34.57" height="10.13" rx="1.5" transform="translate(157.83 580.94) rotate(180)" style="fill:#f5f5f5"></rect><rect x="267.29" y="256.63" width="34.57" height="10.13" rx="1.5" style="fill:#f5f5f5"></rect><rect x="286.14" y="269.54" width="34.57" height="10.13" rx="1.5" style="fill:#f5f5f5"></rect><rect x="182.09" y="181.6" width="34.57" height="10.13" rx="1.5" style="fill:#f5f5f5"></rect><rect x="200.94" y="194.51" width="34.57" height="10.13" rx="1.5" style="fill:#f5f5f5"></rect><rect x="153.8" y="108.73" width="34.57" height="10.13" rx="1.5" style="fill:#f5f5f5"></rect><rect x="191.51" y="108.73" width="34.57" height="10.13" rx="1.5" style="fill:#f5f5f5"></rect><rect x="172.66" y="121.64" width="34.57" height="10.13" rx="1.5" style="fill:#f5f5f5"></rect><rect x="356.87" y="97.57" width="75.02" height="75.02" style="fill:#e6e6e6"></rect><rect x="360.67" y="101.37" width="67.43" height="67.43" transform="translate(529.46 -259.3) rotate(90)" style="fill:#fafafa"></rect><path d="M389.87,153.48s12.38-25.38,38.23-25.89v41.2H394.38Z" style="fill:#f0f0f0"></path><path d="M360.67,146.35s11.13-5.83,22.45-1.55c14.21,5.38,22.45,24,22.45,24h-44.9Z" style="fill:#f5f5f5"></path><path d="M395.7,122.74a11.9,11.9,0,1,1-11.9-11.89A11.9,11.9,0,0,1,395.7,122.74Z" style="fill:#fff"></path><rect x="66.57" y="97.73" width="69.33" height="134.21" style="fill:#e6e6e6"></rect><rect x="38.13" y="134.17" width="126.21" height="61.33" transform="translate(266.07 63.6) rotate(90)" style="fill:#fafafa"></rect><circle cx="91.81" cy="140.83" r="12.53" style="fill:#fff"></circle><path d="M82,227.94s15.52-74.63,49.86-81.33v81.33H82Z" style="fill:#f0f0f0"></path><path d="M70.57,183.65S78.47,176,91,180.58c23.52,8.56,36.65,47.36,36.65,47.36H70.57Z" style="fill:#f5f5f5"></path><polygon points="432.48 397.67 438.14 313.26 373 313.26 378.66 397.67 432.48 397.67" style="fill:#f5f5f5"></polygon><polygon points="437.6 321.2 373.8 324.88 373.34 318.19 437.8 318.19 437.6 321.2" style="fill:#e6e6e6"></polygon><rect x="369.09" y="310.8" width="72.95" height="7.39" rx="0.44" style="fill:#f5f5f5"></rect><polygon points="430.84 331.77 429.24 359.99 381.9 359.99 380.3 331.77 430.84 331.77" style="fill:#e6e6e6"></polygon><path d="M407.93,347.05a2.36,2.36,0,1,1-2.36-2.37A2.36,2.36,0,0,1,407.93,347.05Z" style="fill:#e0e0e0"></path><polygon points="428.61 366.6 427.15 392.33 383.99 392.33 382.53 366.6 428.61 366.6" style="fill:#e6e6e6"></polygon><path d="M407.93,380.4a2.36,2.36,0,1,1-2.36-2.36A2.36,2.36,0,0,1,407.93,380.4Z" style="fill:#e0e0e0"></path><path d="M398.63,397.67h-.38a14.11,14.11,0,0,0-13.6,10.81l-.4,1.72h-5.06l-.49-12.54Z" style="fill:#e6e6e6"></path><path d="M412.53,397.67h.38a14.1,14.1,0,0,1,13.59,10.81l.41,1.72h5l.51-12.54Z" style="fill:#e6e6e6"></path><path d="M392.6,268.62s-5.71,1.63-12-6.53c-4.55-5.9-12.6-18.48-23.72-18.69,0,0,13.19-5.72,24.83.1s17.85,20.89,10.89,25.12" style="fill:#f0f0f0"></path><path d="M396,292.18h0a.3.3,0,0,1-.29-.32A85.85,85.85,0,0,0,394.51,275c-1.44-8.23-4.85-19.09-12.92-24.1a.32.32,0,0,1-.1-.42.31.31,0,0,1,.42-.09,24.85,24.85,0,0,1,9,10.71,53,53,0,0,1,4.18,13.81,85.76,85.76,0,0,1,1.2,17A.3.3,0,0,1,396,292.18Z" style="fill:#e0e0e0"></path><path d="M396.92,250.66s5.78-1.35,7.32-11.54c1.11-7.37,2-22.28,11.64-27.87,0,0-14.3,1.42-21.64,12.16s-5.45,26.93,2.68,27.25" style="fill:#f0f0f0"></path><path d="M404.87,292.84a.29.29,0,0,1-.28-.2A199.4,199.4,0,0,1,398,269.09a126,126,0,0,1-2.87-20.68c-.34-7.66.43-14,2.27-18.89a.3.3,0,0,1,.38-.18.3.3,0,0,1,.18.39c-4.11,10.88-1.93,27.34.62,39.23a198.08,198.08,0,0,0,6.61,23.48.31.31,0,0,1-.18.38A.22.22,0,0,1,404.87,292.84Z" style="fill:#e0e0e0"></path><path d="M407,255.65s5.88.8,11-8.17c3.67-6.48,9.86-20.07,20.83-21.85,0,0-13.86-3.8-24.56,3.61s-14.71,23.2-7.23,26.41" style="fill:#f0f0f0"></path><path d="M407.93,292.84a.31.31,0,0,1-.3-.24,131,131,0,0,1-2-21.85,83,83,0,0,1,1.81-18.62c1.55-6.76,4.09-12.17,7.56-16.07a.3.3,0,0,1,.42,0,.3.3,0,0,1,0,.43c-7.71,8.67-9.27,23.43-9.21,34.28a130.81,130.81,0,0,0,2,21.73.3.3,0,0,1-.23.36Z" style="fill:#e0e0e0"></path><path d="M417.13,269.36s5.6,1.95,12.36-5.82c4.89-5.62,13.66-17.72,24.76-17.28,0,0-12.83-6.48-24.78-1.34s-19,19.81-12.34,24.44" style="fill:#f0f0f0"></path><path d="M411.67,292.84a.31.31,0,0,1-.3-.29,64,64,0,0,1,1.89-15.25,53.88,53.88,0,0,1,5.14-13.38,38.51,38.51,0,0,1,10.43-12.17.3.3,0,0,1,.42.06.29.29,0,0,1-.06.42c-9.28,7-13.47,17.56-15.34,25.21A62.7,62.7,0,0,0,412,292.53a.3.3,0,0,1-.3.31Z" style="fill:#e0e0e0"></path><path d="M429.83,299.84a10.09,10.09,0,0,1-.41,2.69A10.5,10.5,0,0,1,420.8,310a112.82,112.82,0,0,1-30.71-.06,10.55,10.55,0,0,1-9.09-8.69,10,10,0,0,1-.09-2.31c.22-2.65,1.58-5.22,4.24-7.72h40.42C428.55,294,429.89,296.86,429.83,299.84Z" style="fill:#e0e0e0"></path></g><g id="freepik--Shadow--inject-62"><path d="M450.32,450.89c0,3.39-87.76,6.14-196,6.14s-196-2.75-196-6.14,87.76-6.14,196-6.14S450.32,447.49,450.32,450.89Z" style="fill:#f0f0f0"></path></g><g id="freepik--Plant--inject-62"><path d="M227.91,412.22l.65,3.64.13.76,1.82,10.3.15.84,3.28,18.63a6.59,6.59,0,0,0,.23.9,6.3,6.3,0,0,0,.37.84,5.86,5.86,0,0,0,5.17,3.1H266a5.87,5.87,0,0,0,5.77-4.84l1.27-7.18.13-.77h0l1.87-10.6.26-1.47h0l.8-4.57.16-.87,1.53-8.71Z" style="fill:#263238"></path><path d="M252.74,369.76s6.95-9.83,6.89-15.95c-.06-6.89-3.69-5.9-3.69-5.9s1.42-21-3.58-22c0,0-.88-17.25-8.1-14.94s-3.95,17.16-3.95,17.16a10.87,10.87,0,0,0-2.38,5.28c-.75,5.88,4.73,15.67,4.73,15.67S239.38,351,240.4,356s12.34,13.75,12.34,13.75Z" style="fill:#FF9740"></path><path d="M253.27,407.11s-15.31-3.72-16.85-9.05,0-7.55,0-7.55-11.31-15.6-7.54-19c0,0-8.07-15.25-.69-17s12.19,12.72,12.19,12.72a10.89,10.89,0,0,1,4.74,3.31c3.65,4.66,4,15.88,4,15.88s2.08-1.16,3.8,3.7S253.27,407.11,253.27,407.11Z" style="fill:#FF9740"></path><path d="M256.46,394s14.42-6.12,15.47-11.56-.67-7.52-.67-7.52,9.84-16.57,5.77-19.64c0,0,6.65-15.94-.86-17s-11,13.76-11,13.76a10.88,10.88,0,0,0-4.43,3.74c-3.21,5-2.51,16.18-2.51,16.18s-2.18-1-3.45,4,1.65,18,1.65,18Z" style="fill:#FF9740"></path><path d="M255.17,414.59a.41.41,0,0,1-.4-.39c-.8-37.86-7.22-78.33-7.28-78.74a.39.39,0,0,1,.33-.45.4.4,0,0,1,.45.33c.06.4,6.49,40.93,7.3,78.84a.41.41,0,0,1-.39.41Z" style="fill:#263238"></path><path d="M254.78,403.23h-.05a.4.4,0,0,1-.35-.44c1.35-10.74,12.42-37,12.53-37.32a.4.4,0,0,1,.73.31c-.11.26-11.14,26.47-12.47,37.11A.41.41,0,0,1,254.78,403.23Z" style="fill:#263238"></path><path d="M255.17,414.17a.41.41,0,0,1-.37-.24c-3.53-8.36-9.47-20.48-15.22-32.2l-3.76-7.68a.41.41,0,0,1,.18-.53.39.39,0,0,1,.53.19l3.76,7.67c5.75,11.73,11.7,23.86,15.24,32.24a.38.38,0,0,1-.21.52A.4.4,0,0,1,255.17,414.17Z" style="fill:#263238"></path></g><g id="freepik--speech-bubble-2--inject-62"><path d="M326.32,95.43v44a14.37,14.37,0,0,1-9.7,13.58l1,21.4-18.71-20.59H220.13a14.37,14.37,0,0,1-14.36-14.39v-44A14.38,14.38,0,0,1,220.13,81h91.8A14.41,14.41,0,0,1,326.32,95.43Z" style="fill:#FF9740"></path><path d="M326.32,95.43v44a14.37,14.37,0,0,1-9.7,13.58l1,21.4-18.71-20.59H220.13a14.37,14.37,0,0,1-14.36-14.39v-44A14.38,14.38,0,0,1,220.13,81h91.8A14.41,14.41,0,0,1,326.32,95.43Z" style="fill:#fff;opacity:0.5"></path><circle cx="237.84" cy="117.95" r="6.63" style="fill:#FF9740"></circle><circle cx="294.26" cy="117.95" r="6.63" style="fill:#FF9740"></circle><circle cx="266.33" cy="117.95" r="6.63" style="fill:#FF9740"></circle></g><g id="freepik--speech-bubble-1--inject-62"><path d="M166,139.94v10.62a3.46,3.46,0,0,0,2.35,3.28l-.24,5.17,4.51-5h19a3.47,3.47,0,0,0,3.47-3.48V139.94a3.47,3.47,0,0,0-3.47-3.47H169.43A3.47,3.47,0,0,0,166,139.94Z" style="fill:#FF9740"></path><path d="M166,139.94v10.62a3.46,3.46,0,0,0,2.35,3.28l-.24,5.17,4.51-5h19a3.47,3.47,0,0,0,3.47-3.48V139.94a3.47,3.47,0,0,0-3.47-3.47H169.43A3.47,3.47,0,0,0,166,139.94Z" style="fill:#fff;opacity:0.5"></path><path d="M185.71,145.37a1.6,1.6,0,1,0,1.6-1.6A1.6,1.6,0,0,0,185.71,145.37Z" style="fill:#FF9740"></path><path d="M172.09,145.37a1.6,1.6,0,1,0,1.6-1.6A1.6,1.6,0,0,0,172.09,145.37Z" style="fill:#FF9740"></path><path d="M178.83,145.37a1.6,1.6,0,1,0,1.6-1.6A1.6,1.6,0,0,0,178.83,145.37Z" style="fill:#FF9740"></path></g><g id="freepik--character-2--inject-62"><path d="M336.59,203.81c-3.28,5.8-6.77,11.29-10.54,16.77-1.54,2.23-3.13,4.45-4.83,6.64-.38.5-.76,1-1.15,1.48L319,230.1c-.72.87-1.46,1.74-2.25,2.62a39.7,39.7,0,0,1-4.22,4.13,14.47,14.47,0,0,1-4,2.43,9.36,9.36,0,0,1-1,.31,10,10,0,0,1-1.22.23c-.32,0-.64.06-1,.06s-.55,0-.83,0a12.11,12.11,0,0,1-2.57-.49,18.4,18.4,0,0,1-3.35-1.49c-.93-.52-1.76-1.05-2.55-1.6a67.25,67.25,0,0,1-8.05-6.82,70.17,70.17,0,0,1-11.19-15.09l3-4.51c2.49,1.93,5.24,4,7.78,5.87s4.9,3.77,7.45,5.54a66.09,66.09,0,0,0,7.63,4.39c.48.24.95.47,1.38.66a32.56,32.56,0,0,0,2.14-2.52c.88-1.13,1.77-2.33,2.65-3.57,1.75-2.48,3.48-5.09,5.18-7.72,3.41-5.26,6.77-10.73,10.09-16Z" style="fill:#FF9740"></path><path d="M273.14,211.25s-2.2-1.92-4.16-3.48,1.69-1.65,3.39-.79a17,17,0,0,1,3.8,2.65Z" style="fill:#ffc3bd"></path><path d="M273.14,211.25s-2.2-1.92-4.16-3.48,1.69-1.65,3.39-.79a17,17,0,0,1,3.8,2.65Z" style="opacity:0.2"></path><path d="M276.8,214.35s-3.09.37-7.73.58-7.6-4.16-9.91-5.42,3.16-2.09,5-.29,7,.2,9-.44,5.42-.51,6.57,1.06C279.8,211.39,278.58,214.82,276.8,214.35Z" style="fill:#ffc3bd"></path><polygon points="343.02 429 343.02 444.13 336.9 444.62 333.91 430.45 343.02 429" style="fill:#ffc3bd"></polygon><path d="M338.68,443.2s-1.92-3.69-3.06-3.3-1.59,4.87-1.59,4.87-6.17,2.06-7.89,2.17S323,448,322.8,451.39h21.05s-.14-7.6-.18-8.9-1.89.33-1.89.33Z" style="fill:#FF9740"></path><g style="opacity:0.2"><path d="M338.68,443.2s-1.92-3.69-3.06-3.3-1.59,4.87-1.59,4.87-6.17,2.06-7.89,2.17S323,448,322.8,451.39h21.05s-.14-7.6-.18-8.9-1.89.33-1.89.33Z" style="fill:#fff"></path></g><path d="M343.62,445.38a3.15,3.15,0,0,0-1.15,4.44.15.15,0,1,1-.26.16,3.46,3.46,0,0,1,1.2-4.89c.17-.11.38.18.21.29Z" style="fill:#fff"></path><path d="M343.65,450.18l-16.51.17-3.84,0c-.21,0-.26-.33,0-.33l16.51-.17,3.83-.05c.22,0,.26.34,0,.34Z" style="fill:#fff"></path><path d="M334.94,446.09a2.14,2.14,0,0,0-3.07-.54c-.16.13-.36-.16-.21-.29,1.09-.89,2.56-.5,3.54.67.15.17-.12.34-.26.16Z" style="fill:#fff"></path><path d="M333.19,446.64a2.13,2.13,0,0,0-3.07-.54c-.15.13-.36-.16-.2-.29,1.08-.89,2.56-.51,3.54.66.15.18-.12.35-.27.17Z" style="fill:#fff"></path><path d="M331.39,447.19a2.13,2.13,0,0,0-3.07-.54c-.16.12-.36-.17-.2-.29,1.08-.89,2.56-.51,3.54.66.15.18-.12.34-.27.17Z" style="fill:#fff"></path><path d="M346.69,279c-.18,2.7.2,11-.17,15.45-.69,8.49-1.61,19.49-2.34,30.52-.86,12.77-2.83,25-2.52,33.83.78,22.78,2,75,2,75h-9.89s-11.6-51.31-13.77-74.41c-1.82-19.14-.85-68.47-.55-80.39Z" style="fill:#263238"></path><path d="M346.52,294.4c-.69,8.49-1.61,19.49-2.34,30.52-4.87-14.4-.35-36.15-.35-36.15Z" style="opacity:0.2"></path><polygon points="344.49 434.1 332.89 434.1 332.04 430.4 345.02 429.95 344.49 434.1" style="fill:#FF9740"></polygon><path d="M356.88,360.84c4.78,22.7,22.42,72.21,22.42,72.21l9.82-1.11s-7.15-50.86-10.5-73.4c-3-20.35-4.92-66.77-5.61-80.6l-32.8,1c1.05,11.87,12.71,63.07,16.67,81.89Z" style="fill:#263238"></path><polygon points="388.29 429 388.29 444.13 382.18 444.62 379.18 430.45 388.29 429" style="fill:#ffc3bd"></polygon><path d="M384,443.2s-1.92-3.69-3.05-3.3-1.6,4.87-1.6,4.87-6.16,2.06-7.89,2.17-3.11,1.09-3.33,4.45h21s-.14-7.6-.18-8.9-1.89.33-1.89.33Z" style="fill:#FF9740"></path><g style="opacity:0.2"><path d="M384,443.2s-1.92-3.69-3.05-3.3-1.6,4.87-1.6,4.87-6.16,2.06-7.89,2.17-3.11,1.09-3.33,4.45h21s-.14-7.6-.18-8.9-1.89.33-1.89.33Z" style="fill:#fff"></path></g><path d="M388.89,445.38a3.16,3.16,0,0,0-1.14,4.44.16.16,0,1,1-.27.16,3.46,3.46,0,0,1,1.2-4.89c.18-.11.38.18.21.29Z" style="fill:#fff"></path><path d="M388.92,450.18l-16.51.17-3.84,0c-.21,0-.25-.33,0-.33l16.51-.17,3.84-.05c.21,0,.26.34,0,.34Z" style="fill:#fff"></path><path d="M380.21,446.09a2.14,2.14,0,0,0-3.07-.54c-.16.13-.36-.16-.21-.29,1.09-.89,2.57-.5,3.55.67.14.17-.12.34-.27.16Z" style="fill:#fff"></path><path d="M378.47,446.64a2.14,2.14,0,0,0-3.07-.54c-.16.13-.36-.16-.21-.29,1.09-.89,2.56-.51,3.54.66.15.18-.12.35-.26.17Z" style="fill:#fff"></path><path d="M376.66,447.19a2.13,2.13,0,0,0-3.07-.54c-.15.12-.36-.17-.2-.29,1.08-.89,2.56-.51,3.54.66.15.18-.12.34-.27.17Z" style="fill:#fff"></path><polygon points="390.01 432.19 378.49 433.5 377.23 429.92 390.08 428 390.01 432.19" style="fill:#FF9740"></polygon><path d="M375.33,280.17C352.13,282.78,330,281,318,279c.6-5.93,4.31-77.84,5.82-82,1.4-3.86,8-5.74,12.65-6.51,1.13-.19,2.14-.32,3-.39a117.37,117.37,0,0,1,13.29-.3c2.22.06,4.47.15,6.7.26,3.25.15,4.74.27,7.19.57,3.74.46,6.34,3.41,6,8.19-.47,6.24-.69,12.47-.73,18.57,0,1.61,0,3.2,0,4.79C372,250,375.61,274,375.33,280.17Z" style="fill:#FF9740"></path><path d="M375.33,280.17C352.13,282.78,330,281,318,279c.6-5.93,4.31-77.84,5.82-82,1.4-3.86,8-5.74,12.65-6.51,1.13-.19,2.14-.32,3-.39a117.37,117.37,0,0,1,13.29-.3c2.22.06,4.47.15,6.7.26,3.25.15,4.74.27,7.19.57,3.74.46,6.34,3.41,6,8.19-.47,6.24-.69,12.47-.73,18.57,0,1.61,0,3.2,0,4.79C372,250,375.61,274,375.33,280.17Z" style="fill:#fff;opacity:0.5"></path><path d="M373,251.92l4.59,6.31a154.57,154.57,0,0,0,17.95-12c1.44-1.13,2.89-2.3,4.31-3.61a35.53,35.53,0,0,0,4.35-4.6,16.34,16.34,0,0,0,1.14-1.71,10.88,10.88,0,0,0,1.15-2.72,6.47,6.47,0,0,0,.22-1.07,8.49,8.49,0,0,0,.1-1.33,6,6,0,0,0-.06-.8c0-.28-.07-.56-.13-.85a7.75,7.75,0,0,0-.27-.94l-.16-.46-.11-.25-.24-.5-.2-.37-.19-.34-.17-.27c-.23-.37-.41-.63-.6-.92-.74-1-1.37-1.81-2-2.57s-1.26-1.48-1.88-2.18c-2.5-2.76-5-5.3-7.53-7.82s-5.09-5-7.7-7.35c-5-4.68-10.16-9.21-15.51-13.55a1.7,1.7,0,0,0-1-.38h-.21c-8,.06-11.44,10.31-5.4,15.59,3.87,3.39,7.82,6.73,11.74,10.06L383,224c2.62,2.22,5.21,4.47,7.63,6.68.58.54,1.16,1.07,1.69,1.59-.42.56-.9,1.15-1.38,1.72-1,1.19-2.12,2.41-3.26,3.62C383.08,242.43,378,247.2,373,251.92Z" style="fill:#FF9740"></path><path d="M376.4,249.33s-7.44.43-8.74,1.4,3,9.58,5.12,11.2,1.68-1.6,1.68-1.6a19.41,19.41,0,0,0,6-3.25C382.58,255.13,382.08,251.29,376.4,249.33Z" style="fill:#ffc3bd"></path><path d="M352.68,189.76c-1.7,2.9-6.35,9.1-13.1,9.12-5,0-4.5-5.86-3.15-8.43,1.13-.19,2.14-.32,3-.39A117.37,117.37,0,0,1,352.68,189.76Z" style="fill:#FF9740"></path><path d="M335.51,154.11c6.32-.66,8.31.21,11.52,2.32,2.1,1.38,5.13,4.15,5.65,7.49,1.58,10.18-5.69,13.91-5.69,13.91l-19.8-11.22s-5.33-6.88-.21-11.61C329.55,152.62,332.36,154.44,335.51,154.11Z" style="fill:#263238"></path><path d="M337.17,185.5h0a.21.21,0,0,0,0,.07l1,3.55a11.09,11.09,0,0,1,0,2.15A12,12,0,0,1,338,193c-.42,1.24-.6,3.68,1.65,3.5,3.5-.27,9.91-5.18,10.13-6.72-1.66-4.79-3.06-10.38-2.83-15l-4,4.36Z" style="fill:#ffc3bd"></path><g style="opacity:0.2"><path d="M337.2,185.58l1,3.55c2.19-1,4.47-3.19,5-5.53.36-1.69-.41-3.26-1.09-3.34Z"></path></g><path d="M328.26,178.2c.21.77.45,1.53.71,2.28,2.26,6.62,10.45,7.16,15.51,2.23,0,0,0,0,0,0a11.07,11.07,0,0,0,1.27-1.44c3.2-4.28,2.37-7.55,1.82-15a10.14,10.14,0,0,0-15.22-8.15C326.17,161.68,326.12,170.48,328.26,178.2Z" style="fill:#ffc3bd"></path><path d="M328.12,177.67s.21,8.27,5.17,9.66c3.88,1.1,10.28-.61,10.8-6.12.48-5,.56-9.86.56-9.86l-1.83.4s-2.53,4-3.58,4.19-1.4-1.06-6.46-.18C329.1,176.4,328.12,177.67,328.12,177.67Z" style="fill:#263238"></path><path d="M331.43,178.68a49.53,49.53,0,0,0,5.05-1.94,2.82,2.82,0,0,1-2.27,3.12A2.58,2.58,0,0,1,331.43,178.68Z" style="fill:#fff"></path><path d="M342.83,164.44c1.87.46,0,7.31,0,7.31l2.64-.57s-.2-.25-.11-2.17,2.32-2,2.32-2,.55-5.56-2.35-9-10-2.94-13.52-.54a11.32,11.32,0,0,0-4.27,6.83s2.42-3.47,3.49-3.47.06,1.47,1.18,1.44c2.16-.06,3.17-3.38,6.62-2.57S338.4,163.34,342.83,164.44Z" style="fill:#263238"></path><path d="M351.41,170.76a7.08,7.08,0,0,1-2.79,4.62c-2,1.46-3.87-.13-4-2.47-.15-2.11.72-5.41,3.08-5.94a3.18,3.18,0,0,1,3.74,3.79" style="fill:#ffc3bd"></path><path d="M336.61,171.32c.08.58-.16,1.1-.54,1.15s-.75-.38-.83-1,.16-1.09.54-1.15.76.38.83,1" style="fill:#263238"></path><path d="M330.24,172.11c.08.58-.16,1.09-.54,1.14s-.76-.38-.83-1,.16-1.09.54-1.14.75.38.83,1" style="fill:#263238"></path><path d="M327.77,169.89a.28.28,0,0,0,.24-.18,1.5,1.5,0,0,1,.8-.91,1.7,1.7,0,0,1,1.21,0,.3.3,0,0,0,.39-.16.29.29,0,0,0-.15-.39,2.4,2.4,0,0,0-1.68,0,2.1,2.1,0,0,0-1.12,1.24.29.29,0,0,0,.16.38A.27.27,0,0,0,327.77,169.89Z" style="fill:#263238"></path><path d="M338,168.71a.21.21,0,0,0,.13-.05.29.29,0,0,0,.08-.4,2.32,2.32,0,0,0-1.39-.94,2.09,2.09,0,0,0-1.62.42.31.31,0,0,0-.07.42.3.3,0,0,0,.41.07,1.51,1.51,0,0,1,1.17-.33,1.84,1.84,0,0,1,1,.68A.27.27,0,0,0,338,168.71Z" style="fill:#263238"></path><path d="M332.69,170.11a18.56,18.56,0,0,1-2.26,4.94c-.15.22,2.53.67,2.53.67Z" style="fill:#ed847e"></path><path d="M337.77,188.43h0Z"></path></g><g id="freepik--character-1--inject-62"><polygon points="162.88 434.33 164.97 444.32 170.23 444.32 170.81 434.33 162.88 434.33" style="fill:#ff8b7b"></polygon><path d="M185.26,451.39c-.17-3.26-1.57-4.23-3.33-4.34s-8.31-2.31-8.31-2.31-1.3-2.07-2.49-2.49-2.4.81-2.4.81l-3.29-.4s-.94-1.49-1.67-.19c-1.12,2-1.18,7.61-1.13,8.92Z" style="fill:#263238"></path><path d="M184.86,450.54l-4.1,0-17.93-.1c-.23,0-.17-.34,0-.34h1.22s0,0,0,0a3.27,3.27,0,0,0-1.06-4.73c-.19-.1,0-.41.22-.3a3.56,3.56,0,0,1,1.18,5.08H167l17.93.09C185.15,450.19,185.09,450.54,184.86,450.54Z" style="fill:#FF9740"></path><path d="M172.58,446.15c1-1.1,2.34-1.41,3.31-.58.15.13.38-.17.23-.3-1.11-.95-2.71-.54-3.81.7-.16.18.11.36.27.18Z" style="fill:#fff"></path><path d="M174.41,446.73c1-1.1,2.35-1.41,3.31-.58.16.13.38-.17.23-.3-1.11-1-2.71-.54-3.81.7-.16.19.11.36.27.18Z" style="fill:#fff"></path><path d="M176.31,447.31c1-1.09,2.34-1.4,3.31-.58.16.14.38-.17.23-.3-1.11-.95-2.71-.53-3.81.71-.16.18.11.35.27.17Z" style="fill:#fff"></path><polygon points="102.42 426.64 100.18 436.95 104.97 439.09 109.45 429.52 102.42 426.64" style="fill:#ff8b7b"></polygon><path d="M115.77,451.64c1.16-3,.29-4.49-1.27-5.3s-6.62-5.49-6.62-5.49-.34-2.41-1.26-3.28-2.51-.24-2.51-.24l-2.83-1.7s-.25-1.74-1.44-.85c-1.84,1.38-4.17,6.44-4.65,7.66Z" style="fill:#263238"></path><path d="M115.75,450.7,112,449l-16.29-7.39c-.21-.09,0-.38.2-.29l1.1.5,0,0a3.25,3.25,0,0,0,1-4.74c-.12-.17.21-.35.33-.18a3.54,3.54,0,0,1-1,5.1l2.3,1,16.27,7.38C116.15,450.5,116,450.8,115.75,450.7Z" style="fill:#FF9740"></path><path d="M106.36,441.71c1.33-.6,2.7-.33,3.25.82.08.18.41,0,.33-.18-.63-1.32-2.25-1.59-3.75-.91-.22.1,0,.37.17.27Z" style="fill:#fff"></path><path d="M107.79,443c1.33-.61,2.71-.33,3.25.81.09.19.41,0,.33-.18-.63-1.31-2.25-1.59-3.75-.9-.22.1-.05.36.17.27Z" style="fill:#fff"></path><path d="M109.28,444.29c1.33-.6,2.71-.33,3.25.82.09.18.41,0,.33-.18-.63-1.32-2.25-1.59-3.75-.91-.22.1,0,.37.17.27Z" style="fill:#fff"></path><path d="M144,292.8a368.15,368.15,0,0,0,6,42.72q1.51,7.83,3.48,16.71C151.29,388,162.75,436,162.75,436l8.7-.19s3-55.35,2.91-84.33C174.29,304,170,258.81,170,258.81l-23.69-.09S142,265.85,144,292.8Z" style="fill:#FF9740"></path><path d="M144,292.8a368.15,368.15,0,0,0,6,42.72q1.51,7.83,3.48,16.71C151.29,388,162.75,436,162.75,436l8.7-.19s3-55.35,2.91-84.33C174.29,304,170,258.81,170,258.81l-23.69-.09S142,265.85,144,292.8Z" style="fill:#fff;opacity:0.2"></path><path d="M144,292.8a368.15,368.15,0,0,0,6,42.72c5.63-19-2-59.52-2-59.52Z" style="opacity:0.2"></path><path d="M151.26,266.26s-4.68,66.3-9.14,90.09l-32.67,74.87-8-4.48s12.29-58.41,22.13-76.41c0,0-7.12-59.69,1.2-86.45Z" style="fill:#FF9740"></path><path d="M151.26,266.26s-4.68,66.3-9.14,90.09l-32.67,74.87-8-4.48s12.29-58.41,22.13-76.41c0,0-7.12-59.69,1.2-86.45Z" style="fill:#fff;opacity:0.2"></path><polygon points="108.86 434.14 110.92 431 100.59 425.7 99.36 429.26 108.86 434.14" style="fill:#263238"></polygon><polygon points="172.38 437.9 172.78 434.17 161.18 434.17 161.71 437.9 172.38 437.9" style="fill:#263238"></polygon><path d="M172.12,233.16a62,62,0,0,0,.37,10.35c.13,1.44.27,2.94.4,4.48.53,6.4.91,13.53-.34,20.14a2.85,2.85,0,0,1-1.88,2.18c-6.46,2.1-28.68,1.12-45.53-3a3,3,0,0,1-2.26-3.61,124.88,124.88,0,0,0,2.51-22.85c0-1.23.06-2.47.07-3.76a207.24,207.24,0,0,0-1.8-27.7A10.21,10.21,0,0,1,132.55,198c1.6-.18,3.28-.35,5-.45a128.24,128.24,0,0,1,18.26-.29c2,.14,4,.36,6,.6a13.75,13.75,0,0,1,12.08,14.08C173.52,221.18,180.76,226.5,172.12,233.16Z" style="fill:#263238"></path><path d="M135.69,213.75s.4,11.56,3.29,16l-5.75-1.12S133.45,218.62,135.69,213.75Z" style="opacity:0.2"></path><path d="M172.89,248c-6.56-1.81-16.95-7.51-16.95-7.51l16.55,3C172.62,245,172.76,246.45,172.89,248Z" style="opacity:0.2"></path><path d="M160.51,237.6s-17.36,11.78-24.85,10.53c-4.36-.73-8-4.36-10.27-7.26,0-1.23.06-2.47.07-3.76Z" style="opacity:0.2"></path><path d="M156.92,213.42a3,3,0,0,0,1.55-.42c4.82-2.79-.4-15.6-.63-16.14a.33.33,0,0,0-.61.25c.05.13,5.23,12.82.91,15.32a2.55,2.55,0,0,1-2.14.18c-5.29-1.63-12.09-15.63-12.16-15.77a.33.33,0,0,0-.59.29c.28.59,7,14.4,12.55,16.11A3.79,3.79,0,0,0,156.92,213.42Z" style="fill:#fff"></path><path d="M166.78,178.25s4.34-8.07-1.86-13.53-16.72-4.05-21.26,2.71-2.81,15.42,1.4,18.46c3.51,2.53,3,5.24,3,5.24Z" style="fill:#263238"></path><path d="M152.89,162c0-5.64-9.23-9.11-14.59-5.74-7.43,4.68-.91,11.42-2.27,15.31s-6.84.92-6.84.92,4,8.54,10.39,6.2c5.73-2.1,7.33-9.31,7.33-9.31S152.89,167.63,152.89,162Z" style="fill:#263238"></path><path d="M142.42,168.59a.28.28,0,0,0,.26-.19c2.48-7.22,9.84-6.79,10.16-6.77a.27.27,0,1,0,0-.54c-.08,0-8.08-.49-10.71,7.13a.28.28,0,0,0,.17.35Z" style="fill:#FF9740"></path><g style="opacity:0.5"><path d="M142.42,168.59a.28.28,0,0,0,.26-.19c2.48-7.22,9.84-6.79,10.16-6.77a.27.27,0,1,0,0-.54c-.08,0-8.08-.49-10.71,7.13a.28.28,0,0,0,.17.35Z" style="fill:#fff"></path></g><path d="M156.94,197.71c.05.08.09.17.13.25,1.51,6.8-7.72,5.08-11.47-.81,2.49-3.32,3-9.1,2.4-13.27l7.53,6.21,1.46,1.4a13.63,13.63,0,0,0-.65,3.18A5.33,5.33,0,0,0,156.94,197.71Z" style="fill:#ff8b7b"></path><g style="opacity:0.2"><path d="M156.34,194.67a13.63,13.63,0,0,1,.65-3.18l-1.46-1.4-3.9-.09S153.46,193.77,156.34,194.67Z"></path></g><path d="M145.17,176.07c1,7.54,1.36,9.47,5.4,13.08,6.09,5.43,14.9,3.81,16.1-3.89,1.09-6.93-.78-18.11-8.28-20.58s-14.25,3.84-13.22,11.39" style="fill:#ff8b7b"></path><ellipse cx="159.39" cy="184.57" rx="1" ry="1.29" style="fill:#fff"></ellipse><path d="M158.73,173.8a.38.38,0,0,1-.27.12,2.62,2.62,0,0,0-2.15,1.51.34.34,0,0,1-.63-.28,3.28,3.28,0,0,1,2.79-1.92.35.35,0,0,1,.34.35A.35.35,0,0,1,158.73,173.8Z" style="fill:#263238"></path><path d="M165.65,175.22a.34.34,0,0,1-.21-.2,2.61,2.61,0,0,0-2.23-1.39.35.35,0,0,1-.34-.35.34.34,0,0,1,.35-.33,3.27,3.27,0,0,1,2.86,1.81.34.34,0,0,1-.19.45A.33.33,0,0,1,165.65,175.22Z" style="fill:#263238"></path><path d="M160.1,164.15s-.87,9.15-10,8.26-1.78-8.2,2.25-9.29A11.38,11.38,0,0,1,160.1,164.15Z" style="fill:#263238"></path><path d="M150.12,165.54s3.47,9.46.69,12.63-7.62-1.44-7.62-1.44S143.64,166.36,150.12,165.54Z" style="fill:#263238"></path><path d="M157.31,177.11c.05.61.41,1.09.81,1.06s.7-.55.65-1.17-.41-1.09-.81-1.06-.7.55-.65,1.17" style="fill:#263238"></path><path d="M163.53,176.79c.05.61.41,1.09.82,1.06s.69-.56.64-1.17-.41-1.1-.81-1.07-.7.56-.65,1.18" style="fill:#263238"></path><path d="M164,175.66l1.45-.54s-.67,1.22-1.45.54" style="fill:#263238"></path><path d="M161,177.08s1.19,1.55,2.45,2.88a.92.92,0,0,1-.19,1.44,9.06,9.06,0,0,1-1.86.8Z" style="fill:#ff5652"></path><path d="M157.78,176l1.45-.54s-.67,1.22-1.45.54" style="fill:#263238"></path><path d="M142.87,181.52a4.87,4.87,0,0,0,3.18,2.45c1.72.35,2.42-1.57,1.81-3.41-.56-1.65-2.12-3.83-3.78-3.33s-2.11,2.69-1.21,4.29" style="fill:#ff8b7b"></path><path d="M146.39,184.73a1.25,1.25,0,1,1,.28-1.74A1.25,1.25,0,0,1,146.39,184.73Z" style="fill:#fff"></path><path d="M136.08,208.83l-.31,3.75c-.08,1.27-.18,2.55-.24,3.82-.15,2.54-.2,5.07-.18,7.51a41.72,41.72,0,0,0,.58,6.78,12,12,0,0,0,.63,2.16c.07.19.1.23-.05.13a1,1,0,0,0-.15-.08s.06,0,.08.07l.3.21a6.66,6.66,0,0,0,2.08.71,15.19,15.19,0,0,0,3,.22,39.79,39.79,0,0,0,7.09-.86,123.59,123.59,0,0,0,14.9-4.26l2.6,4.65a65.37,65.37,0,0,1-7.1,4.63,64,64,0,0,1-7.71,3.76,42.14,42.14,0,0,1-8.7,2.54,26.29,26.29,0,0,1-5,.36,16.72,16.72,0,0,1-5.76-1.14,14.3,14.3,0,0,1-1.5-.69c-.27-.15-.46-.24-.79-.45a11.58,11.58,0,0,1-.95-.69,12.19,12.19,0,0,1-2.6-3,19.57,19.57,0,0,1-2.24-5.37,43.29,43.29,0,0,1-1.34-9.25,80.56,80.56,0,0,1,0-8.66c.09-1.42.18-2.83.34-4.24s.32-2.77.56-4.3Z" style="fill:#263238"></path><path d="M184.64,240.08a6.38,6.38,0,0,1-.81,2.65,6,6,0,0,1-.8,1.11,8.36,8.36,0,0,1-.81.76,5.57,5.57,0,0,1-.75.51c-.23.13-.46.26-.7.37a10,10,0,0,1-1,.38c-.26.07-.52.12-.79.17a11.25,11.25,0,0,1-2.15.15c-.59,0-1.1-.05-1.57-.1a43.76,43.76,0,0,1-5.05-1c-1.56-.39-3.08-.79-4.56-1.25-3-.91-5.86-1.87-8.71-2.93l-1-.38-.08,0a2.61,2.61,0,0,1-.42-.16c-.3-.1-.6-.21-.89-.33-4.87-1.83-9.65-3.8-14.39-6l1.83-5.47,17.45,3.67c2.89.57,5.78,1.17,8.61,1.65,1,.17,3.28,1,4.23,1.16-.81-1.95-3-4.62-3.81-6.59-2.29-5.44-4.59-10.93-6.74-16.43l11.53-4.9c2.5,5.5,4.74,11.07,6.84,16.75,1.07,2.84,2,5.7,3,8.68.47,1.55.9,2.9,1.35,5l.16.83,0,.1,0,.19,0,.28A7.22,7.22,0,0,1,184.64,240.08Z" style="fill:#263238"></path><path d="M168.48,211.37a95.29,95.29,0,0,1,5.65,11c1.71,4.43-2,8.55-2,8.55l.78,1.33s3.94-4.81,2.61-9.42C174.54,219.53,168.48,211.37,168.48,211.37Z" style="opacity:0.2"></path><path d="M165.87,234c-1.24.88-6.85,4.82-10,6.61l-.08,0a2.61,2.61,0,0,1-.42-.16C155.82,240.11,163.26,235.74,165.87,234Z" style="opacity:0.2"></path><path d="M163.88,229.08s1.77-1.05,5.83.11c5.27,2.94,4.07,6.27,2.84,5.92l-6.12-1.48Z" style="fill:#ff8b7b"></path><path d="M143.67,229a64.12,64.12,0,0,0-6.27-2.69c-1.71-.47-2.06.05-2.06.05l.18,1.72s-3.11,3.39-3.62,6.3,5.25.33,7.27.09a26.76,26.76,0,0,1,4-.12C143.89,234,144.53,230.06,143.67,229Z" style="fill:#ff8b7b"></path></g></svg>
